/* XPM */
static char *button_menu[] = {
/* columns rows colors chars-per-pixel */
"16 16 3 1 ",
"  c #ffffff",
". c #232424",
"X c #000000",
/* pixels */
"..            ..",
"...XXXXXXXXXXXX.",
"..            ..",
"...XXXXXXXXXXXX.",
"..            ..",
"...XXXXXXXXXXXX.",
"..            ..",
"...XXXXXXXXXXXX.",
"..            ..",
"...XXXXXXXXXXXX.",
"..            ..",
"...XXXXXXXXXXXX.",
"..            ..",
"...XXXXXXXXXXXX.",
"..            ..",
"...XXXXXXXXXXXX."
};
