/* XPM */
static char *button_restore[] = {
/* columns rows colors chars-per-pixel */
"16 16 4 1 ",
"  c #ffffff",
". c #111111",
"X c #232424",
"o c #434444",
/* pixels */
"...............o",
".ooooooooooooo.o",
".oXXXXXXXXXXXX.o",
".oXXXXXXXXXXXX.o",
".oX       XXXX.o",
".oX       XXXX.o",
".oX XXXXX XXXX.o",
".oX X       XX.o",
".oX X       XX.o",
".oX   XXXXX XX.o",
".oXXX XXXXX XX.o",
".oXXX       XX.o",
".oXXXXXXXXXXXX.o",
".oXXXXXXXXXXXX.o",
"...............o",
"oooooooooooooooo"
};
