/* XPM */
static char *button_minimize_pressed[] = {
/* columns rows colors chars-per-pixel */
"16 16 4 1 ",
"  c #ffffff",
". c #111111",
"X c #232424",
"o c #434444",
/* pixels */
"ooooooooooooooo.",
"o.............o.",
"o.XXXXXXXXXXXXo.",
"o.XXXXXXXXXXXXo.",
"o.XXXXXXXXXXXXo.",
"o.XXXXXXXXXXXXo.",
"o.XXXXXXXXXXXXo.",
"o.XXXXXXXXXXXXo.",
"o.XXXXXXXXXXXXo.",
"o.XXXXXXXXXXXXo.",
"o.XXXXXXXXXXXXo.",
"o.XX         Xo.",
"o.XX         Xo.",
"o.XXXXXXXXXXXXo.",
"ooooooooooooooo.",
"................"
};
