/* XPM */
static char * frame_right_xpm[] = {
"7 1 4 1",
" 	c None",
".	c #000000",
"+	c #232424",
"@	c #111111",
".++++@."};
