/* XPM */
static char * frame_bottom_right_xpm[] = {
"7 7 4 1",
" 	c None",
".	c #000000",
"+	c #232424",
"@	c #111111",
".++++@.",
"+++++@.",
"+++++@.",
"+++++@.",
"+++++@.",
"@@@@@@.",
"......."};
