/* XPM */
static char * titlebar_right_xpm[] = {
"7 24 5 1",
" 	c None",
".	c #000000",
"+	c #434444",
"@	c #111111",
"#	c #232424",
".......",
"+++++@.",
"#####@.",
"#####@.",
"#####@.",
"#####@.",
"#####@.",
"#####@.",
"#####@.",
"#####@.",
"#####@.",
"#####@.",
"#####@.",
"#####@.",
"#####@.",
"#####@.",
"#####@.",
"#####@.",
"#####@.",
"#####@.",
"#####@.",
"#####@.",
"#####@.",
".####@."};
