/* XPM */
static char *button_maximize[] = {
/* columns rows colors chars-per-pixel */
"16 16 4 1 ",
"  c black",
". c #9E9A91",
"X c #DCDAD5",
"o c white",
/* pixels */
"...............o",
".ooooooooooooo.o",
".oXXXXXXXXXXXX.o",
".oXXXXXXXXXXXX.o",
".oX         XX.o",
".oX         XX.o",
".oX         XX.o",
".oX XXXXXXX XX.o",
".oX XXXXXXX XX.o",
".oX XXXXXXX XX.o",
".oX XXXXXXX XX.o",
".oX         XX.o",
".oXXXXXXXXXXXX.o",
".oXXXXXXXXXXXX.o",
"...............o",
"oooooooooooooooo"
};
