/* XPM */
static char *button_close_pressed[] = {
/* columns rows colors chars-per-pixel */
"16 16 4 1 ",
"  c black",
". c #9E9A91",
"X c #DCDAD5",
"o c white",
/* pixels */
"ooooooooooooooo.",
"o.............o.",
"o.XXXXXXXXXXXXo.",
"o.XXXXXXXXXXXXo.",
"o.XXXXXXXXXXXXo.",
"o.XX  XXXXX  Xo.",
"o.XXX  XXX  XXo.",
"o.XXXX  X  XXXo.",
"o.XXXXX   XXXXo.",
"o.XXXXX   XXXXo.",
"o.XXXX  X  XXXo.",
"o.XXX  XXX  XXo.",
"o.XX  XXXXX  Xo.",
"o.XXXXXXXXXXXXo.",
"ooooooooooooooo.",
"................"
};
