/* XPM */
static char *button_close[] = {
/* columns rows colors chars-per-pixel */
"16 16 4 1 ",
"  c black",
". c #9E9A91",
"X c #DCDAD5",
"o c white",
/* pixels */
"...............o",
".ooooooooooooo.o",
".oXXXXXXXXXXXX.o",
".oXXXXXXXXXXXX.o",
".oX  XXXXX  XX.o",
".oXX  XXX  XXX.o",
".oXXX  X  XXXX.o",
".oXXXX   XXXXX.o",
".oXXXX   XXXXX.o",
".oXXX  X  XXXX.o",
".oXX  XXX  XXX.o",
".oX  XXXXX  XX.o",
".oXXXXXXXXXXXX.o",
".oXXXXXXXXXXXX.o",
"...............o",
"oooooooooooooooo"
};
