/* XPM */
static char * frame_bottom_left_xpm[] = {
"7 7 5 1",
" 	c None",
".	c #000000",
"+	c #FFFFFF",
"@	c #DCDAD5",
"#	c #777777",
".+@@@@.",
".+@@@@@",
".+@@@@@",
".+@@@@@",
".+@@@@@",
".######",
"......."};
