/* XPM */
static char * frame_bottom_xpm[] = {
"1 7 4 1",
" 	c None",
".	c #000000",
"+	c #DCDAD5",
"@	c #777777",
".",
"+",
"+",
"+",
"+",
"@",
"."};
