/* XPM */
static char * titlebar_left_xpm[] = {
"7 24 4 1",
" 	c None",
".	c #000000",
"+	c #FFFFFF",
"@	c #DCDAD5",
".......",
".++++++",
".+@@@@@",
".+@@@@@",
".+@@@@@",
".+@@@@@",
".+@@@@@",
".+@@@@@",
".+@@@@@",
".+@@@@@",
".+@@@@@",
".+@@@@@",
".+@@@@@",
".+@@@@@",
".+@@@@@",
".+@@@@@",
".+@@@@@",
".+@@@@@",
".+@@@@@",
".+@@@@@",
".+@@@@@",
".+@@@@@",
".+@@@@@",
".+@@@@."};
